<svg width="80" height="80" viewBox="0 0 80 80" fill="none" xmlns="http://www.w3.org/2000/svg">
<g clip-path="url(#clip0_360_7126)">
<path d="M26.1243 0.585025L29.7243 7.01002C23.0368 10.35 18.4118 16.75 18.4118 24.23H61.5868C61.5868 16.78 56.9618 10.355 50.2793 7.01002L53.8793 0.585025C53.8793 0.585025 54.1368 0.327525 53.6218 0.0700248C53.3643 -0.187475 53.1068 0.327525 53.1068 0.327525L49.2493 6.75502C46.2585 5.41057 43.0183 4.71041 39.7393 4.70002C36.4602 4.71041 33.2201 5.41057 30.2293 6.75502L26.3793 0.330025C26.3793 0.330025 26.1243 0.0750248 25.8643 0.0750248C25.8914 0.270257 25.9819 0.451187 26.1218 0.590025L26.1243 0.585025ZM29.7493 13.175C30.7493 13.175 31.8043 14.175 31.8043 15.23C31.8043 16.285 30.8043 17.285 29.7493 17.285C29.4783 17.2891 29.2093 17.2387 28.9581 17.1368C28.707 17.035 28.4788 16.8838 28.2872 16.6921C28.0955 16.5005 27.9443 16.2724 27.8425 16.0212C27.7406 15.77 27.6903 15.501 27.6943 15.23C27.6903 14.959 27.7406 14.69 27.8425 14.4389C27.9443 14.1877 28.0955 13.9595 28.2872 13.7679C28.4788 13.5763 28.707 13.4251 28.9581 13.3232C29.2093 13.2214 29.4783 13.171 29.7493 13.175ZM50.3093 13.175C51.3093 13.175 52.3643 14.175 52.3643 15.23C52.3643 16.285 51.3643 17.285 50.3093 17.285C50.0383 17.2891 49.7693 17.2387 49.5181 17.1368C49.267 17.035 49.0388 16.8838 48.8472 16.6921C48.6555 16.5005 48.5043 16.2724 48.4025 16.0212C48.3006 15.77 48.2503 15.501 48.2543 15.23C48.2503 14.959 48.3006 14.69 48.4025 14.4389C48.5043 14.1877 48.6555 13.9595 48.8472 13.7679C49.0388 13.5763 49.267 13.4251 49.5181 13.3232C49.7693 13.2214 50.0383 13.171 50.3093 13.175ZM18.1543 26.8V59.7C18.1543 61.2425 20.2093 63.555 21.7543 63.555H26.8943V74.8625C26.8943 77.6875 28.9493 80.0025 31.5193 80.0025C34.0893 80.0025 36.1443 77.69 36.1443 74.8625V63.55H43.5943V74.8575C43.5943 77.6825 45.6493 79.9975 48.2193 79.9975C50.7893 79.9975 52.8443 77.685 52.8443 74.8575V63.55H57.9843C59.5268 63.55 61.5843 61.495 61.5843 59.695V26.8H18.1543Z" fill="white"/>
<path d="M10.957 26.03C13.527 26.03 15.582 28.3425 15.582 31.17V50.7025C15.582 53.5275 13.527 55.8425 10.957 55.8425C8.38703 55.8425 6.33203 53.53 6.33203 50.7025V31.17C6.33203 28.345 8.38703 26.03 10.957 26.03Z" fill="white"/>
<path d="M69.042 26.03C71.612 26.03 73.667 28.3425 73.667 31.17V50.7025C73.667 53.5275 71.612 55.8425 69.042 55.8425C66.472 55.8425 64.417 53.53 64.417 50.7025V31.17C64.417 28.345 66.472 26.03 69.042 26.03Z" fill="white"/>
</g>
<defs>
<clipPath id="clip0_360_7126">
<rect width="80" height="80" fill="white"/>
</clipPath>
</defs>
</svg>
