<svg width="80" height="80" viewBox="0 0 80 80" fill="none" xmlns="http://www.w3.org/2000/svg">
<g clip-path="url(#clip0_923_6668)">
<path d="M18.0328 75.9172C18.9378 75.0123 19.6557 73.938 20.1455 72.7556C20.6353 71.5733 20.8875 70.3061 20.8876 69.0263C20.8876 67.7465 20.6356 66.4793 20.146 65.2969C19.6563 64.1145 18.9385 63.0401 18.0336 62.1351C17.1287 61.2301 16.0544 60.5122 14.8721 60.0224C13.6898 59.5326 12.4225 59.2805 11.1427 59.2804C9.86297 59.2803 8.5957 59.5323 7.41331 60.022C6.23092 60.5117 5.15656 61.2295 4.25157 62.1343C1.54063 64.8437 0.468757 69.0453 0.13282 72.85C-0.059618 75.0025 -0.0470616 77.1685 0.17032 79.3187C0.228132 79.8578 0.746882 79.9797 0.835945 79.9953H0.862507C1.07969 79.9953 4.19376 80.0656 5.15313 77.0265C5.32544 76.4598 5.57857 75.921 5.9047 75.4265C6.03989 75.2316 6.23696 75.088 6.46396 75.019C6.69096 74.95 6.9346 74.9597 7.1554 75.0465C7.3762 75.1333 7.56123 75.2922 7.68049 75.4972C7.79976 75.7023 7.84627 75.9417 7.81251 76.1765C7.65666 77.3308 7.89623 78.5039 8.49219 79.5047C8.55732 79.6161 8.65437 79.7054 8.7708 79.7611C8.88723 79.8168 9.01769 79.8364 9.14532 79.8172C12.4078 79.3172 15.7484 78.2015 18.0328 75.9172ZM79.9234 7.30935C79.6875 3.23278 76.7672 0.312471 72.6906 0.0765334C58.8438 -0.748467 43.4125 5.12341 31.3781 17.1578L28.1688 20.3672C27.0115 21.5234 25.9125 22.7099 24.8719 23.9265H14.7531C12.6047 24.0093 10.7047 25.2484 9.6297 27.0672L3.68126 38.9656C3.5224 39.3926 3.4113 39.836 3.35001 40.2875C3.35937 41.053 3.66815 41.7844 4.21021 42.325C4.75227 42.8655 5.48449 43.1724 6.25001 43.1797H13.7625C12.7875 46.4609 13.4375 49.6906 15.5234 51.7734L28.225 64.475C30.3094 66.5609 33.5375 67.2109 36.8188 66.2359V73.7562C36.8281 74.5204 37.1358 75.2506 37.6762 75.791C38.2166 76.3314 38.9468 76.6391 39.7109 76.6484C40.1624 76.5871 40.6058 76.476 41.0328 76.3172L52.9313 70.3687C54.75 69.2937 55.9891 67.4 56.0719 65.2453V55.1281C57.2854 54.0864 58.4719 52.9875 59.6313 51.8312L62.8406 48.6218C74.8766 36.5875 80.7484 21.1562 79.9234 7.30935ZM63.0641 31.4203C61.6317 32.8527 59.8067 33.8282 57.8199 34.2235C55.8331 34.6187 53.7737 34.4159 51.9022 33.6407C50.0307 32.8655 48.431 31.5527 47.3056 29.8684C46.1801 28.1841 45.5794 26.2038 45.5794 24.1781C45.5794 22.1524 46.1801 20.1721 47.3056 18.4878C48.431 16.8035 50.0307 15.4907 51.9022 14.7155C53.7737 13.9403 55.8331 13.7375 57.8199 14.1327C59.8067 14.528 61.6317 15.5035 63.0641 16.9359C64.9848 18.8567 66.0638 21.4618 66.0638 24.1781C66.0638 26.8944 64.9848 29.4995 63.0641 31.4203ZM12.3625 15.9718C11.8042 15.4134 11.4906 14.656 11.4906 13.8664C11.4906 13.0767 11.8042 12.3194 12.3625 11.7609L20.075 4.04841C20.6344 3.48897 21.3932 3.17468 22.1844 3.17468C22.9756 3.17468 23.7343 3.48897 24.2938 4.04841C24.8532 4.60785 25.1675 5.36661 25.1675 6.15778C25.1675 6.94895 24.8532 7.70772 24.2938 8.26716L16.5813 15.9797C16.3041 16.2567 15.9749 16.4764 15.6127 16.626C15.2504 16.7756 14.8622 16.8523 14.4703 16.8516C14.0783 16.8508 13.6904 16.7727 13.3287 16.6218C12.967 16.4708 12.6387 16.25 12.3625 15.9718ZM1.18282 14.2047C0.626456 13.6464 0.31405 12.8904 0.31405 12.1023C0.31405 11.3142 0.626456 10.5582 1.18282 9.99997L5.13751 6.03903C5.69948 5.49812 6.45124 5.19926 7.2312 5.20671C8.01117 5.21415 8.75709 5.5273 9.30863 6.07884C9.86018 6.63039 10.1733 7.37631 10.1808 8.15627C10.1882 8.93624 9.88936 9.688 9.34845 10.25L5.39376 14.2047C5.11786 14.4822 4.7898 14.7025 4.42847 14.8528C4.06713 15.0031 3.67964 15.0804 3.28829 15.0804C2.89694 15.0804 2.50945 15.0031 2.14811 14.8528C1.78678 14.7025 1.45872 14.4822 1.18282 14.2047ZM63.7766 67.3843C63.499 67.1084 63.2788 66.7804 63.1285 66.4191C62.9782 66.0577 62.9008 65.6702 62.9008 65.2789C62.9008 64.8875 62.9782 64.5 63.1285 64.1387C63.2788 63.7774 63.499 63.4493 63.7766 63.1734L71.4875 55.4687C71.764 55.1917 72.0923 54.9719 72.4538 54.8218C72.8153 54.6717 73.2027 54.5942 73.5941 54.5938C73.9855 54.5935 74.3731 54.6702 74.7349 54.8197C75.0966 54.9691 75.4253 55.1883 75.7024 55.4648C75.9794 55.7413 76.1992 56.0697 76.3493 56.4311C76.4994 56.7926 76.5769 57.18 76.5772 57.5714C76.5776 57.9628 76.5009 58.3504 76.3514 58.7122C76.202 59.0739 75.9828 59.4027 75.7063 59.6797L67.9953 67.3922C67.7181 67.6692 67.389 67.8889 67.0267 68.0385C66.6645 68.1881 66.2763 68.2648 65.8843 68.2641C65.4924 68.2633 65.1045 68.1852 64.7428 68.0343C64.3811 67.8833 64.0527 67.6625 63.7766 67.3843ZM65.5422 78.564C64.9839 78.0056 64.6703 77.2482 64.6703 76.4586C64.6703 75.6689 64.9839 74.9116 65.5422 74.3531L69.4969 70.3984C69.7734 70.1214 70.1017 69.9016 70.4632 69.7515C70.8246 69.6013 71.2121 69.5239 71.6035 69.5235C71.9949 69.5232 72.3825 69.5999 72.7442 69.7493C73.106 69.8988 73.4347 70.118 73.7117 70.3945C73.9887 70.671 74.2086 70.9993 74.3587 71.3608C74.5088 71.7222 74.5862 72.1097 74.5866 72.5011C74.587 72.8925 74.5102 73.2801 74.3608 73.6419C74.2114 74.0036 73.9921 74.3323 73.7156 74.6093L69.7609 78.564C69.4844 78.8418 69.1557 79.0622 68.7937 79.2127C68.4317 79.3631 68.0436 79.4405 67.6516 79.4405C67.2596 79.4405 66.8715 79.3631 66.5095 79.2127C66.1475 79.0622 65.8188 78.8418 65.5422 78.564Z" fill="white"/>
</g>
<defs>
<clipPath id="clip0_923_6668">
<rect width="80" height="80" fill="white"/>
</clipPath>
</defs>
</svg>
