<svg width="80" height="80" viewBox="0 0 80 80" fill="none" xmlns="http://www.w3.org/2000/svg">
<g clip-path="url(#clip0_923_6660)">
<path d="M80 18.9062V7.1875C80 3.31047 76.8458 0.15625 72.9688 0.15625H7.03125C3.15422 0.15625 0 3.31047 0 7.1875V18.9062H80ZM54.0625 9.53125H68.125C69.4194 9.53125 70.4688 10.5806 70.4688 11.875C70.4688 13.1694 69.4194 14.2188 68.125 14.2188H54.0625C52.7681 14.2188 51.7188 13.1694 51.7188 11.875C51.7188 10.5806 52.7681 9.53125 54.0625 9.53125ZM30.625 9.53125C31.9194 9.53125 32.9688 10.5806 32.9688 11.875C32.9688 13.1694 31.9194 14.2188 30.625 14.2188C29.3306 14.2188 28.2812 13.1694 28.2812 11.875C28.2812 10.5806 29.3306 9.53125 30.625 9.53125ZM21.25 9.53125C22.5444 9.53125 23.5938 10.5806 23.5938 11.875C23.5938 13.1694 22.5444 14.2188 21.25 14.2188C19.9556 14.2188 18.9062 13.1694 18.9062 11.875C18.9062 10.5806 19.9556 9.53125 21.25 9.53125ZM11.875 9.53125C13.1694 9.53125 14.2188 10.5806 14.2188 11.875C14.2188 13.1694 13.1694 14.2188 11.875 14.2188C10.5806 14.2188 9.53125 13.1694 9.53125 11.875C9.53125 10.5806 10.5806 9.53125 11.875 9.53125ZM0 23.5938V72.8125C0 76.6895 3.15422 79.8438 7.03125 79.8438H72.9688C76.8458 79.8438 80 76.6895 80 72.8125V23.5938H0ZM27.4016 56.9198C28.4125 57.7284 28.5762 59.2033 27.7677 60.2141C26.9592 61.2247 25.4841 61.3888 24.4734 60.58L12.7547 51.205C11.583 50.268 11.5822 48.4825 12.7547 47.5447L24.4734 38.1697C25.4838 37.3611 26.9589 37.5248 27.7677 38.5356C28.5762 39.5464 28.4125 41.0214 27.4016 41.8298L17.9706 49.375L27.4016 56.9198ZM49.1855 33.892L35.123 66.7045C34.6131 67.8941 33.2356 68.4456 32.0455 67.9355C30.8558 67.4256 30.3045 66.0477 30.8145 64.858L44.877 32.0455C45.387 30.8558 46.7648 30.3047 47.9545 30.8145C49.1442 31.3244 49.6955 32.7022 49.1855 33.892ZM67.2453 51.2052L55.5266 60.5802C54.5175 61.3877 53.0422 61.2264 52.2323 60.2142C51.4237 59.2034 51.5875 57.7284 52.5984 56.92L62.0294 49.375L52.5984 41.8302C51.5875 41.0216 51.4237 39.5467 52.2323 38.5359C53.0408 37.5252 54.5158 37.3612 55.5266 38.17L67.2453 47.545C68.417 48.482 68.4178 50.2673 67.2453 51.2052Z" fill="white"/>
</g>
<defs>
<clipPath id="clip0_923_6660">
<rect width="80" height="80" fill="white"/>
</clipPath>
</defs>
</svg>
