<svg width="80" height="80" viewBox="0 0 80 80" fill="none" xmlns="http://www.w3.org/2000/svg">
<path d="M25.9609 58.4572L38.2608 70.7648L72.1029 36.915H47.4954L25.9609 58.4572Z" fill="white"/>
<path d="M47.4958 0H72.1033L19.8076 52.3034L7.5 39.9958L47.4958 0Z" fill="white"/>
<path d="M38.2617 70.7649L47.4963 79.9917H72.1038L50.5693 58.4573L38.2617 70.7649Z" fill="white"/>
<path d="M56.5152 64.4416L50.5693 58.4573L38.2617 70.7649L56.5152 64.4416Z" fill="white"/>
<path d="M25.96 58.453L38.2679 46.145L50.5765 58.453L38.2679 70.761L25.96 58.453Z" fill="white"/>
<path d="M72.1033 36.9151L50.5689 58.4572L72.1033 79.9994H47.4958L25.9537 58.4572L47.4958 36.9151H72.1033ZM47.4958 0L7.5 39.9958L19.8076 52.3034L72.1033 0H47.4958Z" fill="white"/>
</svg>
