<svg width="80" height="80" viewBox="0 0 80 80" fill="none" xmlns="http://www.w3.org/2000/svg">
<g clip-path="url(#clip0_360_7328)">
<path d="M40.0545 21.8776C29.9865 21.8776 21.8232 30.0408 21.8232 40.1089C21.8232 50.1769 29.9865 58.3401 40.0545 58.3401C50.1226 58.3401 58.2858 50.1769 58.2858 40.1089C58.2314 30.0408 50.0681 21.8776 40.0545 21.8776Z" fill="white"/>
<path d="M66.1771 23.5102C70.7757 23.5102 74.5037 19.7823 74.5037 15.1837C74.5037 10.5851 70.7757 6.85718 66.1771 6.85718C61.5785 6.85718 57.8506 10.5851 57.8506 15.1837C57.8506 19.7823 61.5785 23.5102 66.1771 23.5102Z" fill="white"/>
<path d="M76.4082 23.5102L76.0816 22.7483L75.5374 23.4014C74.1769 24.9252 72.4354 26.1224 70.5306 26.8299L69.9864 27.0476L70.2041 27.5918C71.8912 31.5646 72.7075 35.8095 72.7075 40.1088C72.7075 58.1224 58.068 72.8163 40 72.8163C21.932 72.8163 7.34694 58.1224 7.34694 40.1088C7.34694 22.0952 21.9864 7.40135 40.0544 7.40135C44.9524 7.40135 49.6327 8.48979 54.0408 10.5578L54.5306 10.7755L54.7483 10.2313C55.5646 8.32653 56.8163 6.69387 58.449 5.38775L59.102 4.84353L58.3401 4.46258C52.6259 1.52381 46.4762 0 40 0C17.9592 0 0 17.9592 0 40C0 62.0408 17.9592 80 40 80C62.0408 80 80 62.0408 80 40C80 34.3401 78.8027 28.7891 76.4082 23.5102Z" fill="white"/>
</g>
<defs>
<clipPath id="clip0_360_7328">
<rect width="80" height="80" fill="white"/>
</clipPath>
</defs>
</svg>
