<svg width="80" height="80" viewBox="0 0 80 80" fill="none" xmlns="http://www.w3.org/2000/svg">
<path d="M62.2993 42.4206C62.4115 54.504 72.8997 58.5251 73.0159 58.5764C72.9272 58.86 71.34 64.3069 67.4902 69.9331C64.1622 74.7972 60.7081 79.6435 55.267 79.7439C49.9205 79.8424 48.2013 76.5734 42.0888 76.5734C35.9781 76.5734 34.068 79.6435 29.007 79.8424C23.7549 80.0411 19.7555 74.5825 16.3999 69.7362C9.54293 59.8229 4.30283 41.7235 11.339 29.5061C14.8344 23.439 21.0809 19.597 27.861 19.4984C33.0184 19.4001 37.8864 22.9682 41.0392 22.9682C44.19 22.9682 50.1056 18.6772 56.3245 19.3074C58.9279 19.4157 66.2358 20.359 70.9284 27.2278C70.5503 27.4622 62.2086 32.3183 62.2993 42.4206M52.2512 12.7489C55.0396 9.37367 56.9163 4.67507 56.4043 0C52.3851 0.161537 47.525 2.6783 44.6421 6.05164C42.0584 9.0389 39.7958 13.8202 40.4063 18.4027C44.8862 18.7493 49.4627 16.1262 52.2512 12.7489" fill="white"/>
</svg>
