<svg width="80" height="80" viewBox="0 0 80 80" fill="none" xmlns="http://www.w3.org/2000/svg">
<g clip-path="url(#clip0_1361_6367)">
<path d="M75.7977 11.6581C75.5403 5.49151 69.6333 4.19804 69.6333 4.19804C69.6333 4.19804 49.1598 1.36707 40.1908 0.339398C31.2189 -0.693721 31.7774 7.2842 31.7774 7.2842C31.7774 7.2842 33.8148 65.4304 34.0263 72.6327C34.2666 81.2134 42.9953 79.8324 42.9953 79.8324L73.8413 74.9378C79.4504 73.9076 79.7282 67.4806 79.7282 67.4806C79.7282 67.4806 76.0846 18.3902 75.7977 11.6581C76.0843 18.3902 75.5403 5.49151 75.7977 11.6581ZM68.898 61.0514L45.9618 63.2314C45.9618 63.2314 39.282 64.1662 39.1317 56.7196C39.0217 51.2332 37.699 19.8058 37.699 19.8058C37.699 19.8058 37.2387 14.0429 44.1125 14.5155C51.1278 14.9934 67.9374 16.1674 67.9374 16.1674C67.9374 16.1674 72.4379 17.15 72.6344 21.856C72.8457 26.9708 74.7878 55.376 74.7878 55.376C74.7878 55.376 75.294 60.0446 68.898 61.0514ZM12.7484 52.5794L8.51111 52.8558C8.51111 52.8558 4.23629 53.3869 4.13817 49.0952C4.06879 45.9325 3.64037 27.9798 3.64037 27.9798C3.64037 27.9798 3.34507 24.6577 7.74146 24.9286C8.85579 24.9949 10.4357 25.0878 12.181 25.1836C12.1203 22.2064 12.0685 19.6036 12.0278 17.6228C9.60826 17.4554 7.34491 17.2747 5.72716 17.1182C-0.0816622 16.5312 0.274261 21.0061 0.274261 21.0061C0.274261 21.0061 0.97517 53.9314 1.10548 57.9681C1.26485 62.7801 6.91118 61.9993 6.91118 61.9993L12.9397 61.4072C12.8875 59.0195 12.8178 55.9764 12.7488 52.5797L12.7484 52.5794ZM29.6012 22.6525C29.5845 22.2642 29.5135 21.8795 29.39 21.5079C27.5347 21.3699 22.8777 20.2571 21.3847 21.7046C20.4381 22.6155 20.8287 24.5355 20.8519 25.6271L24.2295 25.8021C24.2295 25.8021 27.1091 26.3678 27.2338 29.0766C27.3669 32.03 27.3494 48.5719 27.3494 48.5719C27.3494 48.5719 27.6735 51.2702 23.5871 51.8413L21.4425 51.9876C21.454 52.5742 21.4656 53.0471 21.4712 53.3975C21.5612 58.1143 27.0282 56.6032 30.4577 56.2975C30.753 51.2942 30.229 46.1395 30.1077 41.1337C29.9599 34.9751 29.9049 28.8059 29.6012 22.6525C29.7862 26.4183 29.5809 22.233 29.6012 22.6525Z" fill="white"/>
<path d="M31.3749 58.2305L25.1957 58.7776C25.1957 58.7776 19.4335 59.5369 19.3091 53.4448C19.2194 48.9488 18.6404 23.4646 18.6404 23.4646C18.6404 23.4646 18.241 18.7535 24.1539 19.1306C25.6732 19.2263 27.7631 19.3829 30.038 19.5503C29.8671 14.6612 29.7309 10.8048 29.6615 8.81858C26.5476 8.53959 23.6127 8.2583 21.4421 8.03005C13.6275 7.21686 14.1199 13.5561 14.1199 13.5561C14.1199 13.5561 15.049 60.3016 15.2311 66.014C15.4424 72.8418 23.0455 71.745 23.0455 71.745L31.7945 70.7171C31.7077 68.059 31.5602 63.5945 31.3749 58.2302V58.2305ZM43.9472 16.5014C42.8535 16.4217 41.5248 16.4883 40.7145 17.2716C39.8576 18.0949 39.8433 19.2633 39.8926 20.3202C42.9922 20.5674 45.2409 20.7503 45.2409 20.7503C45.2409 20.7503 49.1132 21.55 49.2898 25.4007C49.4691 29.5888 50.5778 52.3455 50.5778 52.3455C50.5778 52.3455 51.0119 56.1723 45.5071 56.9981L41.3395 57.3645C41.8926 63.3424 50.3172 60.8197 54.6264 60.4108C54.1839 51.4213 52.8121 23.6189 52.5024 17.091C49.6514 16.8859 46.7996 16.6893 43.9472 16.5014C46.1149 16.642 43.7331 16.4857 43.9472 16.5014Z" fill="white"/>
</g>
<defs>
<clipPath id="clip0_1361_6367">
<rect width="80" height="80" fill="white"/>
</clipPath>
</defs>
</svg>
