<svg width="80" height="80" viewBox="0 0 80 80" fill="none" xmlns="http://www.w3.org/2000/svg">
<path d="M36.7581 40C36.7553 40.8591 36.4127 41.6822 35.8052 42.2896C35.1976 42.897 34.3744 43.2393 33.5153 43.2419H4.33561C3.47669 43.2391 2.65374 42.8966 2.04639 42.2892C1.43903 41.6819 1.09657 40.8589 1.09375 40V4.33561C1.09657 3.47669 1.43903 2.65374 2.04639 2.04639C2.65374 1.43903 3.47669 1.09657 4.33561 1.09375H33.5153C34.3744 1.09631 35.1976 1.43866 35.8052 2.04604C36.4127 2.65343 36.7553 3.47652 36.7581 4.33561V40ZM78.9063 75.6644C78.9034 76.5233 78.561 77.3463 77.9536 77.9536C77.3463 78.561 76.5233 78.9034 75.6644 78.9063H46.4847C45.6256 78.9037 44.8024 78.5614 44.1949 77.954C43.5873 77.3466 43.2447 76.5235 43.2419 75.6644V40C43.2447 39.1409 43.5873 38.3178 44.1949 37.7104C44.8024 37.1031 45.6256 36.7607 46.4847 36.7581H75.6644C77.4463 36.7581 78.9063 38.2171 78.9063 40V75.6644ZM36.7581 75.6644C36.7553 76.5235 36.4127 77.3466 35.8052 77.954C35.1976 78.5614 34.3744 78.9037 33.5153 78.9063H4.33561C3.47669 78.9034 2.65374 78.561 2.04639 77.9536C1.43903 77.3463 1.09657 76.5233 1.09375 75.6644V52.9684C1.09657 52.1095 1.43903 51.2866 2.04639 50.6792C2.65374 50.0718 3.47669 49.7294 4.33561 49.7266H33.5153C34.3744 49.7291 35.1976 50.0715 35.8052 50.6789C36.4127 51.2862 36.7553 52.1093 36.7581 52.9684V75.6644ZM78.9063 27.0316C78.9034 27.8905 78.561 28.7135 77.9536 29.3208C77.3463 29.9282 76.5233 30.2706 75.6644 30.2734H46.4847C45.6256 30.2709 44.8024 29.9285 44.1949 29.3211C43.5873 28.7138 43.2447 27.8907 43.2419 27.0316V4.33561C43.2447 3.47652 43.5873 2.65343 44.1949 2.04604C44.8024 1.43866 45.6256 1.09631 46.4847 1.09375H75.6644C76.5233 1.09657 77.3463 1.43903 77.9536 2.04639C78.561 2.65374 78.9034 3.47669 78.9063 4.33561V27.0316Z" fill="white"/>
</svg>
