<svg width="80" height="80" viewBox="0 0 80 80" fill="none" xmlns="http://www.w3.org/2000/svg">
<g clip-path="url(#clip0_923_6663)">
<path d="M44.818 14.4459C47.4793 14.4459 49.6368 12.2884 49.6368 9.62711C49.6368 6.96578 47.4793 4.80835 44.818 4.80835C42.1567 4.80835 39.9993 6.96578 39.9993 9.62711C39.9993 12.2884 42.1567 14.4459 44.818 14.4459Z" fill="white"/>
<path d="M54.457 7.7112C56.5864 7.7112 58.3126 5.98499 58.3126 3.8556C58.3126 1.72621 56.5864 0 54.457 0C52.3277 0 50.6014 1.72621 50.6014 3.8556C50.6014 5.98499 52.3277 7.7112 54.457 7.7112Z" fill="white"/>
<path d="M70.6503 65.7808L50.6014 33.7239V24.0968H56.3848V17.3502H23.6137V24.0968H29.3971V33.7239L9.34828 65.7808C8.55523 67.2493 8.15707 68.8986 8.19276 70.5671C8.22845 72.2357 8.69676 73.8664 9.55187 75.2997C10.407 76.7329 11.6196 77.9196 13.071 78.7435C14.5224 79.5674 16.1628 80.0004 17.8318 80H62.1682C63.8371 80.0001 65.4773 79.567 66.9285 78.743C68.3797 77.9189 69.5921 76.7322 70.447 75.299C71.302 73.8658 71.7702 72.2352 71.8058 70.5668C71.8414 68.8983 71.4432 67.2492 70.6503 65.7808ZM24.6961 53.9635L36.1437 35.6591V24.0953H43.8549V35.6591L55.3024 53.9635H24.6961Z" fill="white"/>
</g>
<defs>
<clipPath id="clip0_923_6663">
<rect width="80" height="80" fill="white"/>
</clipPath>
</defs>
</svg>
