<svg width="80" height="80" viewBox="0 0 80 80" fill="none" xmlns="http://www.w3.org/2000/svg">
<path d="M40.0002 47.0776C43.9456 47.0776 47.144 43.8792 47.144 39.9338C47.144 35.9884 43.9456 32.79 40.0002 32.79C36.0548 32.79 32.8564 35.9884 32.8564 39.9338C32.8564 43.8792 36.0548 47.0776 40.0002 47.0776Z" fill="white"/>
<path fill-rule="evenodd" clip-rule="evenodd" d="M40.0008 25.6C49.2185 25.6 57.7816 26.9578 64.2381 29.2396C72.0172 31.9889 76.8002 36.1562 76.8002 39.9297C76.8002 43.862 71.7312 48.2892 63.3774 51.1305C57.0618 53.2786 48.7508 54.4 40.0008 54.4C31.0297 54.4 22.5345 53.3474 16.1477 51.1069C8.06717 48.2716 3.2002 43.7871 3.2002 39.9297C3.2002 36.1869 7.76691 32.0517 15.4367 29.3066C21.9173 26.9872 30.6918 25.6 39.9996 25.6H40.0008Z" stroke="white" stroke-width="2.73408"/>
<path fill-rule="evenodd" clip-rule="evenodd" d="M28.4944 33.1273C32.8648 25.2755 38.0118 18.631 42.9004 14.223C48.7904 8.9121 54.3955 6.8322 57.4174 8.63771C60.5667 10.5194 61.7088 16.956 60.0236 25.4314C58.7508 31.8394 55.7073 39.4552 51.5587 46.9087C47.3052 54.5506 42.4348 61.2834 37.6128 65.6505C31.5112 71.177 25.6121 73.1769 22.523 71.331C19.5254 69.5413 18.3791 63.6714 19.8171 55.8242C21.0321 49.194 24.0813 41.0559 28.493 33.1272L28.4944 33.1273Z" stroke="white" stroke-width="2.73408"/>
<path fill-rule="evenodd" clip-rule="evenodd" d="M28.8184 46.8827C24.2793 39.0342 21.1889 31.0884 19.8989 24.4942C18.3461 16.549 19.444 10.4744 22.5709 8.66233C25.8293 6.77381 31.994 8.96452 38.462 14.7141C43.3523 19.0611 48.3739 25.5999 52.683 33.0517C57.1009 40.6915 60.412 48.4316 61.7001 54.9455C63.33 63.1887 62.0108 69.487 58.8144 71.3395C55.713 73.137 50.0375 71.2339 43.9859 66.0203C38.8727 61.6154 33.4022 54.8091 28.8184 46.8825V46.8827Z" stroke="white" stroke-width="2.73408"/>
</svg>
