<svg width="80" height="80" viewBox="0 0 80 80" fill="none" xmlns="http://www.w3.org/2000/svg">
<g clip-path="url(#clip0_923_6653)">
<path d="M48.3333 0H21.6667C17.2464 0 13.0072 1.75595 9.88155 4.88155C6.75595 8.00716 5 12.2464 5 16.6667V63.3333C5 65.522 5.4311 67.6893 6.26867 69.7114C7.10625 71.7335 8.33391 73.5708 9.88155 75.1184C13.0072 78.2441 17.2464 80 21.6667 80H28.9333C28.2668 78.161 28.1624 76.1652 28.6333 74.2667L31.7333 61.7333C32.1659 59.9655 33.077 58.3509 34.3667 57.0667L53.2 38.2C54.75 36.6524 56.5901 35.4259 58.615 34.5908C60.6399 33.7556 62.8097 33.3283 65 33.3333V16.6667C65 12.2464 63.2441 8.00716 60.1184 4.88155C56.9928 1.75595 52.7536 0 48.3333 0ZM35 43.3333H21.6667C20.7826 43.3333 19.9348 42.9821 19.3096 42.357C18.6845 41.7319 18.3333 40.8841 18.3333 40C18.3333 39.1159 18.6845 38.2681 19.3096 37.643C19.9348 37.0179 20.7826 36.6667 21.6667 36.6667H35C35.8841 36.6667 36.7319 37.0179 37.357 37.643C37.9821 38.2681 38.3333 39.1159 38.3333 40C38.3333 40.8841 37.9821 41.7319 37.357 42.357C36.7319 42.9821 35.8841 43.3333 35 43.3333ZM48.3333 30H21.6667C20.7826 30 19.9348 29.6488 19.3096 29.0237C18.6845 28.3986 18.3333 27.5507 18.3333 26.6667C18.3333 25.7826 18.6845 24.9348 19.3096 24.3096C19.9348 23.6845 20.7826 23.3333 21.6667 23.3333H48.3333C49.2174 23.3333 50.0652 23.6845 50.6904 24.3096C51.3155 24.9348 51.6667 25.7826 51.6667 26.6667C51.6667 27.5507 51.3155 28.3986 50.6904 29.0237C50.0652 29.6488 49.2174 30 48.3333 30ZM48.3333 16.6667H21.6667C20.7826 16.6667 19.9348 16.3155 19.3096 15.6904C18.6845 15.0652 18.3333 14.2174 18.3333 13.3333C18.3333 12.4493 18.6845 11.6014 19.3096 10.9763C19.9348 10.3512 20.7826 10 21.6667 10H48.3333C49.2174 10 50.0652 10.3512 50.6904 10.9763C51.3155 11.6014 51.6667 12.4493 51.6667 13.3333C51.6667 14.2174 51.3155 15.0652 50.6904 15.6904C50.0652 16.3155 49.2174 16.6667 48.3333 16.6667Z" fill="white"/>
<path d="M74.88 50C74.9132 52.6349 73.9017 55.1756 72.0666 57.0667L69.7333 59.4333C69.7333 59.4333 55.5666 45.3 55.6 45.3L57.9333 42.9333C59.3153 41.5184 61.0902 40.5508 63.0283 40.1558C64.9663 39.7608 66.9783 39.9566 68.8039 40.7179C70.6294 41.4791 72.1845 42.7707 73.2677 44.4256C74.351 46.0805 74.9127 48.0224 74.88 50ZM65 64.1667L53.2 75.9334C52.7842 76.3655 52.2513 76.6667 51.6666 76.8L39.1333 79.9C38.5757 80.0432 37.9903 80.0386 37.435 79.8867C36.8796 79.7348 36.3734 79.4408 35.9663 79.0337C35.5592 78.6266 35.2652 78.1204 35.1133 77.565C34.9614 77.0097 34.9568 76.4243 35.1 75.8667L38.2 63.3333C38.3333 62.7487 38.6345 62.2158 39.0666 61.8L50.8666 50.0333C50.8666 50.0333 65 64.1333 65 64.1667Z" fill="white"/>
</g>
<defs>
<clipPath id="clip0_923_6653">
<rect width="80" height="80" fill="white"/>
</clipPath>
</defs>
</svg>
