<svg width="80" height="80" viewBox="0 0 80 80" fill="none" xmlns="http://www.w3.org/2000/svg">
<path d="M74.0443 70.8836C71.8836 64.5023 69.1943 56.4062 58.7504 56.4062H53.095C54.7836 55.0553 56.3157 53.5186 57.5233 51.7188H58.7504C65.2118 51.7188 70.4691 46.4614 70.4691 40V30.625C70.4691 13.825 56.8004 0 40.0004 0C22.8175 0 9.29957 14.2834 9.53395 31.0209C9.53114 36.1822 9.5316 34.3056 9.5316 40C9.5316 46.4614 14.7889 51.7188 21.2504 51.7188H22.4774C23.685 53.5186 25.2171 55.0553 26.9057 56.4062H21.2504C10.8064 56.4062 8.11707 64.5023 5.95645 70.8814C4.42864 75.3903 7.96973 80 12.6857 80H67.3152C72.0471 80 75.5672 75.3737 74.0443 70.8836ZM19.1435 28.2812H16.5629C15.8107 28.2812 15.0994 28.4311 14.4194 28.6509C15.4966 14.552 27.0539 4.6875 40.0004 4.6875C53.5605 4.6875 64.6835 15.3731 65.6832 28.6823C64.9739 28.4411 64.2275 28.2812 63.4379 28.2812H60.8572C59.6739 17.7633 50.8296 9.375 40.0004 9.375C29.1711 9.375 20.3268 17.7633 19.1435 28.2812ZM40.0004 73.7492L30.6244 61.0938H49.3761L40.0004 73.7492ZM40.0004 56.4062C30.9549 56.4062 23.5941 49.0455 23.5941 40V37.6562H30.6254C34.4722 37.6562 37.8625 35.768 40.0004 32.8964C42.1382 35.768 45.5285 37.6562 49.3754 37.6562H56.4066V40C56.4066 42.5258 55.7852 44.8917 54.761 47.0312H44.6879C43.3924 47.0312 42.3441 48.0795 42.3441 49.375C42.3441 50.6705 43.3924 51.7031 44.6879 51.7031H51.4458C48.4868 54.5936 44.4532 56.4062 40.0004 56.4062Z" fill="white"/>
</svg>
