<svg width="80" height="80" viewBox="0 0 80 80" fill="none" xmlns="http://www.w3.org/2000/svg">
<g clip-path="url(#clip0_360_7348)">
<path fill-rule="evenodd" clip-rule="evenodd" d="M79.4062 17.2848C79.7422 18.8374 79.9119 20.4213 79.9125 22.0098L80.0025 22.0235V58.086C79.9177 59.6689 79.7487 61.2461 79.4962 62.811C79.2138 64.4185 78.6413 65.9673 77.8037 67.3898C77.0223 68.8317 75.987 70.1207 74.7475 71.1948C73.4109 72.2999 71.9324 73.221 70.3512 73.9335C68.8237 74.6548 67.1937 75.1635 65.5137 75.4385C63.779 75.7427 62.0212 75.8966 60.26 75.8985H19.6775C19.1223 75.8501 18.5479 75.8176 17.9668 75.7847C16.7777 75.7174 15.5607 75.6485 14.4237 75.4385C12.7112 75.1635 11.0525 74.6635 9.49875 73.9135C7.94065 73.2457 6.50637 72.3198 5.25625 71.1748C2.79125 68.916 1.13125 65.991 0.50625 62.7998C0.170347 61.2472 0.00064143 59.6633 0 58.0748V21.6335C0.0855784 20.0578 0.254565 18.4877 0.50625 16.9298C0.7875 15.3223 1.3625 13.7748 2.18375 12.3398C2.97847 10.8944 4.02881 9.60522 5.28375 8.53479C5.43915 8.39758 5.59895 8.29227 5.75889 8.18687C5.93988 8.06759 6.12106 7.94819 6.29625 7.78229C7.31369 7.02775 8.39485 6.36316 9.5275 5.79604L10.715 5.33604C11.9237 4.86604 13.1812 4.55854 14.465 4.41604C15.7542 4.22948 17.0538 4.12469 18.3563 4.10229H60.1687C60.7239 4.15071 61.2983 4.18324 61.8794 4.21614C63.0686 4.28347 64.2856 4.35238 65.4225 4.56229C67.135 4.83729 68.7937 5.33729 70.3475 6.08729C71.9352 6.77375 73.3927 7.72854 74.6562 8.90979C77.1212 11.1685 78.7812 14.0935 79.4062 17.2848ZM26.6884 59.9337C36.5146 63.7162 46.2984 63.3412 53.4209 59.6412L53.4221 59.6387C56.8734 58.3012 63.7546 56.3387 67.4696 62.7137C68.3271 64.2387 70.1946 56.17 63.4021 48.5387L63.2921 48.4137C63.3217 48.3313 63.3555 48.2488 63.3894 48.1662C63.4845 47.9346 63.5796 47.7029 63.5796 47.4725C66.9671 35.7225 58.8321 21.6937 45.0921 14.2312C51.0271 21.5487 53.7321 30.3912 51.3571 38.1687C51.1416 38.8803 50.8845 39.5786 50.5871 40.26L49.4871 39.6749C39.2034 33.6462 29.6246 26.5962 20.9109 18.6425C26.1359 25.5612 31.9209 32.0837 38.2109 38.1487C29.5746 33.1862 21.3571 27.5949 13.6321 21.4237C14.6155 22.9288 15.7497 24.3298 17.0171 25.6049C24.3734 34.4399 32.8671 42.3624 42.2984 49.1875C35.1534 53.18 24.9746 53.3687 14.8184 49.1875C12.3396 48.215 9.99961 46.95 7.84961 45.4249C12.4584 51.9462 19.0221 56.9999 26.6884 59.9337Z" fill="white"/>
</g>
<defs>
<clipPath id="clip0_360_7348">
<rect width="80" height="80" fill="white"/>
</clipPath>
</defs>
</svg>
