<svg width="80" height="80" viewBox="0 0 80 80" fill="none" xmlns="http://www.w3.org/2000/svg">
<path d="M33.7559 32.9854C29.524 32.9854 27.1357 36.7768 26.7076 40.2994C26.4104 42.7449 25.6195 45.1721 24.8701 47.0478H33.7559C37.6329 47.0478 40.7871 43.8936 40.7871 40.0166C40.7871 36.1396 37.6329 32.9854 33.7559 32.9854Z" fill="white"/>
<path d="M77.6562 3.26465H2.34375C1.04937 3.26465 0 4.31402 0 5.6084V47.0479H19.7614C20.5048 45.4598 21.7123 42.5453 22.0542 39.7337C22.4277 36.6626 23.7092 33.84 25.663 31.7864C27.803 29.5368 30.6772 28.2979 33.7559 28.2979C34.3181 28.2979 34.8708 28.3403 35.4122 28.4171L49.13 14.6992C50.4578 13.3711 52.2236 12.6396 54.1017 12.6396C55.9798 12.6396 57.7456 13.3711 59.0736 14.6993C60.4014 16.0271 61.1331 17.7929 61.1331 19.6709C61.1331 21.549 60.4014 23.3146 59.0733 24.6428L45.3555 38.3607C45.4322 38.902 45.4747 39.4543 45.4747 40.0167C45.4747 42.6528 44.5991 45.0879 43.1245 47.0479H80V5.6084C80 4.31387 78.9505 3.26465 77.6562 3.26465Z" fill="white"/>
<path d="M43.5282 33.5589L55.7589 21.3281C56.2017 20.8853 56.4456 20.2967 56.4456 19.6709C56.4456 19.045 56.2017 18.4565 55.7589 18.0139C55.3161 17.5709 54.7276 17.3271 54.1017 17.3271C53.4757 17.3271 52.8873 17.5709 52.4446 18.0136L40.2139 30.2445C41.5281 31.1159 42.6568 32.2445 43.5282 33.5589Z" fill="white"/>
<path d="M0 60.3291C0 61.6235 1.04937 62.6729 2.34375 62.6729H77.6562C78.9505 62.6729 80 61.6235 80 60.3291V51.7354H0V60.3291Z" fill="white"/>
<path d="M51.7188 72.0479H49.375V67.3604H30.625V72.0479H28.2812C26.9869 72.0479 25.9375 73.0972 25.9375 74.3916C25.9375 75.686 26.9869 76.7354 28.2812 76.7354H51.7188C53.013 76.7354 54.0625 75.686 54.0625 74.3916C54.0625 73.0972 53.013 72.0479 51.7188 72.0479Z" fill="white"/>
</svg>
